<svg xmlns="http://www.w3.org/2000/svg" xmlns:xlink="http://www.w3.org/1999/xlink" border="1px solid black" width="500" height="500">
	<defs>
		<pattern id="rect-grid" viewBox="-10,-10,20,20" width="10%" height="10%">
			 <polygon points="-10,-10 10,-10 10,10 -10,10" fill="none" stroke="blue" stroke-width="0.5"/>
			 <path d="M -4.142 -10 V 10 M 4.142 -10 V 10 M -10 -4.142 H 10 M -10 4.142 H 10" fill="none" stroke="red" stroke-width="0.5"/>
		</pattern>
		<pattern id="oct-grid" viewBox="-10,-10,20,20" width="10%" height="10%">
			 <polygon points="10.000,4.142 4.142,10.000 -4.142,10.000 -10.000,4.142 -10.000,-4.142 -4.142,-10.000 4.142,-10.000 10.000,-4.142" fill="none" stroke="black" />
		</pattern>
		<!--
			var n = 8;
			var r = 10;
			var T = 2*Math.PI/n;
			r *= 1/Math.cos(T/2);
			var result = "";
			for(var i = 0; i < n; ++i)
				result += (r*Math.cos((i+1/2)*T)).toFixed(3) + "," + (r*Math.sin((i+1/2)*T)).toFixed(3) + " ";
			console.log(result);
		-->
		<g id="road-straight-0" transform="scale(2.5,2.5) translate(0,0)">
			<path d="M -10,-4.142 H 10 V 4.142 H -10 V -4.142" fill="grey" stroke="black" />
			<path d="M -10,0 H 10" fill="none" stroke="white" stroke-dasharray="4" />
		</g>
		<g id="road-straight-45" transform="scale(2.5,2.5) translate(0,0)">
			<path d="M -12.929,-7.071 L 7.071,12.929 L 12.929,7.071 L -7.071,-12.929 Z" fill="grey" stroke="black" />
			<path d="M -7.071,-7.071 L 7.071,7.071" fill="none" stroke="white" stroke-dasharray="4" />
		</g>
		<g id="road-curve-90" transform="scale(2.5,2.5) translate(0,0)">
			<path d="M -10,-4.142 A 5.858,5.858 0,0,0 -4.142,-10 H 4.142 A 14.142,14.142 0,0,1 -10,4.142 V -4.142" fill="grey" stroke="black" />
			<path d="M -10,0 A 10,10 0,0,0 0,-10" fill="none" stroke="white" stroke-dasharray="4" />
		</g>
		<g id="road-curve-90-45" transform="scale(2.5,2.5) translate(0,0)">
			<path d="M -10,-4.142 L -12.929,-7.071 L -7.071,-12.929 L -4.142,-10 A 14.142,14.142 0,0,1 -4.142,10 L -7.071,12.929 L -12.929,7.071 L -10,4.142 A 5.857,5.857 0,0,0 -10,-4.142" fill="grey" stroke="black" />
			<path d="M -10,-10 L -7.071,-7.071 A 9.142,9.142 0,0,1 -7.071,7.071 L -10,10" fill="none" stroke="white" stroke-dasharray="4" />
		</g>
		<g id="road-curve-45" transform="scale(2.5,2.5) translate(0,0)">
			<path d="M -10,-4.142 A 0,0 0,0,0 -10,-4.142 L -12.929,-7.071 L -7.071,-12.929 L -4.142,-10 A 8.284,8.284 0,0,1 -10,4.142 V -4.142" fill="grey" stroke="black" />
			<path d="M -10,0 A 4.142,4.142 0,0,0 -7.071,-7.071 L -10,-10" fill="none" stroke="white" stroke-dasharray="4" />
		</g>
		<g id="road-curve-135" transform="scale(2.5,2.5) translate(0,0)">
			<path d="M -10,-4.142 A 20,20 0,0,0 4.142,-10 L 7.071,-12.929 L 12.929,-7.071 L 10,-4.142 A 28.284,28.284 0,0,1 -10,4.142 V -4.142" fill="grey" stroke="black" />
			<path d="M -10,0 A 24.142,24.142 0,0,0 7.071,-7.071 L 10,-10" fill="none" stroke="white" stroke-dasharray="4" />
		</g>
		<g id="road-junction-90-90" transform="scale(2.5,2.5) translate(0,0)">
			<path d="M -10,-4.142 A 5.858,5.858 0,0,0 -4.142,-10 H 4.142 A 5.858,5.858 0,0,0 10,-4.142 V 4.142 H -10 V -4.142" fill="grey" stroke="black" />
			<path d="M -10,0 A 10,10 0,0,0 0,-10 A 10,10 0,0,0 10,0 H -10" fill="none" stroke="white" stroke-dasharray="4" />
		</g>
		<g id="road-junction-45-135" transform="scale(2.5,2.5) translate(0,0)">
			<path d="M -10,-4.142 A 0,0 0,0,0 -10,-4.142 L -12.929,-7.071 L -7.071,-12.929 L -4.142,-10 A 20,20 0,0,0 10,-4.142 V 4.142 H -10 V -4.142" fill="grey" stroke="black" />
			<path d="M -10,0 A 4.142,4.142 0,0,0 -7.071,-7.071 L -10,-10 L -7.071,-7.071 A 24.142,24.142 0,0,0 10,0 H -10" fill="none" stroke="white" stroke-dasharray="4" />
		</g>
		<g id="road-junction-135-90" transform="scale(2.5,2.5) translate(0,0)">
			<path d="M -10,-4.142 A 20,20 0,0,0 4.142,-10 L 7.071,-12.929 L 12.929,-7.071 L 10,-4.142 A 5.857,5.857 0,0,0 10,4.142 L 12.929,7.071 L 7.071,12.929 L 4.142,10 A 20,20 0,0,0 -10,4.142 Z" fill="grey" stroke="black" />
			<path d="M -10,0 A 24.142,24.142 0,0,0 7.071,-7.071 L 10,-10 L 7.071,-7.07 A 9.142,9.142 0,0,0 7.071,7.071 L 10,10 L 7.071,7.071 A 24.142,24.142 0,0,0 -10,0" fill="none" stroke="white" stroke-dasharray="4" />
		</g>
	</defs>
	<rect width="100%" height="100%" fill="url(#rect-grid)" />
	<rect width="100%" height="100%" fill="url(#oct-grid)" />
	<use href="#road-curve-90" transform="translate(50,50) translate(25,25) rotate(0)"/>
	<use href="#road-curve-90" transform="translate(0,50) translate(25,25) rotate(90)"/>
	<use href="#road-curve-45" transform="translate(200,200) translate(25,25) rotate(0)"/>
	<use href="#road-curve-135" transform="translate(50,200) translate(25,25) rotate(0)"/>
	<use href="#road-straight-0" transform="translate(200,50) translate(25,25) rotate(0)"/>
	<use href="#road-straight-45" transform="translate(300,50) translate(25,25) rotate(0)"/>
	<use href="#road-junction-90-90" transform="translate(200,100) translate(25,25) rotate(0)"/>
	<use href="#road-junction-45-135" transform="translate(300,100) translate(25,25) rotate(0)"/>
	<use href="#road-junction-135-90" transform="translate(300,150) translate(25,25) rotate(0)"/>
	<use href="#road-curve-90-45" transform="translate(300,200) translate(25,25) rotate(0)"/>

	<use href="#road-junction-135-90" transform="translate(250,400) translate(25,25) rotate(-90)"/>
	<use href="#road-junction-45-135" transform="translate(300,350) translate(25,25) scale(1,-1) rotate(0)"/>
	<use href="#road-junction-45-135" transform="translate(200,350) translate(25,25) rotate(180)"/>
	<use href="#road-straight-0" transform="translate(250,350) translate(25,25) rotate(0)"/>
	<use href="#road-straight-0" transform="translate(250,450) translate(25,25) rotate(90)"/>
	<use href="#road-straight-0" transform="translate(150,350) translate(25,25) rotate(0)"/>
	<use href="#road-straight-0" transform="translate(350,350) translate(25,25) rotate(0)"/>
</svg>
